<svg width="64" height="64" xmlns="http://www.w3.org/2000/svg">

 <g>
  <title>background</title>
  <rect fill="none" id="canvas_background" height="402" width="582" y="-1" x="-1"/>
 </g>
 <g>
  <title>Layer 1</title>
  <path fill="#ffffff" id="svg_2" d="m24.335821,39.334l-12.778,-21.208c-2.681,3.964 -4.248,8.739 -4.248,13.874c0,2.552 0.388,5.015 1.107,7.334l15.919,0z"/>
  <path fill="#ffffff" id="svg_3" d="m29.569,21.474l24.908,0c-3.199,-6.804 -9.397,-11.925 -16.882,-13.656l-8.026,13.656z"/>
  <path fill="#ffffff" id="svg_4" d="m21.708821,29.16l12.851,-21.866c-0.798,-0.078 -1.606,-0.12 -2.424,-0.12c-7.402,0 -14.053,3.26 -18.605,8.415l8.178,13.571z"/>
  <path fill="#ffffff" id="svg_5" d="m26.75,56.045l7.862,-13.711l-25.176,0c3.302,7.181 9.929,12.524 17.9,14.047l-0.586,-0.336z"/>
  <path fill="#ffffff" id="svg_6" d="m39.762,24.474l12.549,21.776c2.841,-4.037 4.516,-8.95 4.516,-14.25c0,-2.623 -0.412,-5.151 -1.17,-7.526l-15.895,0z"/>
  <path fill="#ffffff" id="svg_7" d="m42.32,34.923l-12.501,21.802c0.719,0.063 1.446,0.101 2.181,0.101c7.234,0 13.753,-3.111 18.295,-8.064l-7.975,-13.839z"/>
 </g>
</svg>
